<svg xmlns="http://www.w3.org/2000/svg" viewBox="-0.00045194 -0.044003 18.03 24.04">
	<path d="m 9 24 M 10.63 19.118 a 1.876 1.876 0 0 0 -0.041 -0.217 c -0.239 -0.911 -0.465 -1.823 -0.726 -2.725 a 0.569 0.569 0 0 1 0.176 -0.677 a 1.3 1.3 0 0 0 0.221 -1.543 a 1.418 1.418 0 0 0 -1.313 -0.772 a 1.376 1.376 0 0 0 -1.232 0.938 a 1.3 1.3 0 0 0 0.415 1.507 a 0.358 0.358 0 0 1 0.117 0.438 c -0.257 0.916 -0.492 1.836 -0.735 2.757 a 2.781 2.781 0 0 0 -0.041 0.289 h 3.158 m -1.6 -7.9 a 5.417 5.417 0 0 1 1.642 -2.134 a 4.357 4.357 0 0 1 5.577 0.352 a 5.785 5.785 0 0 1 1.187 6.736 a 13.445 13.445 0 0 1 -2.725 3.61 a 28.84 28.84 0 0 1 -5.491 4.16 a 0.424 0.424 0 0 1 -0.352 0.027 a 27.5 27.5 0 0 1 -6.4 -5.094 a 9.672 9.672 0 0 1 -2.279 -3.84 a 5.677 5.677 0 0 1 1.8 -5.766 a 4.324 4.324 0 0 1 6.6 1.169 c 0.149 0.239 0.28 0.492 0.438 0.781 M 5.503 2.722 c 0.4 0.379 0.79 0.781 1.214 1.132 c 0.352 0.293 0.537 0.262 0.772 -0.126 c 0.329 -0.546 0.618 -1.11 0.9 -1.683 c 0.036 -0.077 -0.036 -0.244 -0.108 -0.329 A 1.015 1.015 0 0 1 8.387 0.222 a 1.006 1.006 0 0 1 1.363 1.48 a 0.31 0.31 0 0 0 -0.072 0.438 c 0.3 0.532 0.573 1.087 0.893 1.611 c 0.221 0.361 0.37 0.37 0.722 0.126 a 3.189 3.189 0 0 0 0.447 -0.37 c 0.266 -0.266 0.519 -0.541 0.776 -0.808 c -0.492 -0.672 -0.4 -1.358 0.2 -1.678 a 1.006 1.006 0 0 1 1.354 0.406 a 0.985 0.985 0 0 1 -0.424 1.367 a 0.619 0.619 0 0 0 -0.388 0.492 c -0.23 0.947 -0.483 1.886 -0.717 2.833 a 0.486 0.486 0 0 1 -0.532 0.415 q -3 -0.007 -5.992 0 a 0.48 0.48 0 0 1 -0.532 -0.411 c -0.244 -0.966 -0.505 -1.931 -0.74 -2.9 a 0.513 0.513 0 0 0 -0.334 -0.411 a 1 1 0 0 1 -0.564 -1.132 a 1.026 1.026 0 0 1 0.862 -0.767 a 0.982 0.982 0 0 1 1.074 0.659 c 0.14 0.361 0.063 0.672 -0.284 1.142" fill="#000000"/>
</svg>